<svg width="21" height="24" viewBox="0 0 21 24" fill="none" xmlns="http://www.w3.org/2000/svg">
<g clip-path="url(#clip0_2656_14)">
<path d="M19.6204 2.87573C18.8414 3.52323 17.9789 4.01846 17.0661 4.34236C16.5762 3.67855 15.9252 3.20806 15.2009 2.99452C14.4767 2.78098 13.7143 2.8347 13.0169 3.1484C12.3194 3.4621 11.7205 4.02066 11.3012 4.74852C10.8819 5.47639 10.6624 6.33844 10.6724 7.2181V8.17668C9.24291 8.22036 7.82641 7.84674 6.54908 7.08911C5.27174 6.33148 4.17324 5.21336 3.3514 3.83431C3.3514 3.83431 0.0976048 12.4615 7.41864 16.2958C5.74337 17.6359 3.74768 18.3078 1.7245 18.213C9.04554 23.0059 17.9935 18.213 17.9935 7.18934C17.9927 6.92233 17.9709 6.65598 17.9284 6.39372C18.7586 5.4289 19.3445 4.21075 19.6204 2.87573V2.87573Z" stroke="white" stroke-width="2" stroke-linecap="round" stroke-linejoin="round"/>
</g>
<defs>
<clipPath id="clip0_2656_14">
<rect width="19.5228" height="23.0059" fill="white" transform="translate(0.911057)"/>
</clipPath>
</defs>
</svg>
